<?xml version="1.0" encoding="UTF-8" standalone="no"?>
<svg
   xmlns:dc="http://purl.org/dc/elements/1.1/"
   xmlns:cc="http://creativecommons.org/ns#"
   xmlns:rdf="http://www.w3.org/1999/02/22-rdf-syntax-ns#"
   xmlns:svg="http://www.w3.org/2000/svg"
   xmlns="http://www.w3.org/2000/svg"
   xmlns:xlink="http://www.w3.org/1999/xlink"
   id="svg2"
   width="127"
   height="127"
   version="1.0">
  <metadata id="metadata7">
    <rdf:RDF>
      <cc:Work rdf:about="">
        <dc:format>image/svg+xml</dc:format>
        <dc:type rdf:resource="http://purl.org/dc/dcmitype/StillImage" />
        <dc:title>Mupen64plus Program Icon</dc:title>
        <dc:date>August 17, 2008</dc:date>
        <dc:creator>
          <cc:Agent>
            <dc:title>Tillin9</dc:title>
          </cc:Agent>
        </dc:creator>
        <dc:rights>
          <cc:Agent>
            <dc:title>Copyright (C) Tillin9</dc:title>
          </cc:Agent>
        </dc:rights>
        <dc:source>GPL (v2 or later) </dc:source>
        <dc:description>This icon is original work created by Tillin9 for Mupen64plus. 

This icon is free software; you can redistribute it and/or modify it under the terms of the GNU General Public License as published by the Free Software Foundation; either version 2 of the License, or  (at your option) any later version.

You may also copy it under the Creative Common Attribution-ShareAlike 3.0 license, as found here:   http://creativecommons.org/licenses/by-sa/3.0/ 

It is the author's desire that SVG / vector format copies be GPLed and rasterizations licensed under Creative Commons. This is because there are no clear guidelines to applying the GPL to artwork, whereas vector data consitutes source.</dc:description>
      </cc:Work>
    </rdf:RDF>
  </metadata>
  <defs>
    <linearGradient id="g">
      <stop offset="0" style="stop-color:#aaff61;stop-opacity:1"/>
      <stop offset="1" style="stop-color:#0e530d;stop-opacity:1"/>
    </linearGradient>
    <linearGradient id="c">
      <stop offset="0" style="stop-color:#980000;stop-opacity:1"/>
      <stop offset="1" style="stop-color:red;stop-opacity:1"/>
    </linearGradient>
    <linearGradient id="e">
      <stop offset="0" style="stop-color:#980000;stop-opacity:1"/>
      <stop offset="1" style="stop-color:red;stop-opacity:1"/>
    </linearGradient>
    <linearGradient id="f">
      <stop offset="0" style="stop-color:#980000;stop-opacity:1"/>
      <stop offset="1" style="stop-color:red;stop-opacity:1"/>
    </linearGradient>
    <linearGradient id="d">
      <stop offset="0" style="stop-color:#980000;stop-opacity:1"/>
      <stop offset="1" style="stop-color:red;stop-opacity:1"/>
    </linearGradient>
    <linearGradient id="b">
      <stop offset="0" style="stop-color:#000;stop-opacity:1"/>
      <stop offset="1" style="stop-color:#fff;stop-opacity:1"/>
    </linearGradient>
    <linearGradient id="a">
      <stop offset="0" style="stop-color:#000;stop-opacity:1"/>
      <stop offset="1" style="stop-color:#fff;stop-opacity:1"/>
    </linearGradient>
    <linearGradient xlink:href="#g" id="x" x1="260" x2="380" y1="452.3622" y2="692.3622" gradientTransform="matrix(.102536 0 0 .102536 67.6572 48.3126)" gradientUnits="userSpaceOnUse"/>
    <linearGradient xlink:href="#a" id="w" x1="64.5846" x2="64.5846" y1="43.5" y2="58.5" gradientTransform="translate(-2.0503 -1.4063)" gradientUnits="userSpaceOnUse"/>
    <linearGradient xlink:href="#a" id="v" x1="64.5846" x2="64.5846" y1="43.5" y2="58.5" gradientTransform="matrix(-1 0 0 1 165.0495 -19.9063)" gradientUnits="userSpaceOnUse"/>
    <linearGradient xlink:href="#f" id="u" x1="27.35" x2="65.2806" y1="101.3395" y2="82.8395" gradientTransform="matrix(-1 0 0 1 127 -1.7457)" gradientUnits="userSpaceOnUse"/>
    <linearGradient xlink:href="#d" id="t" x1="20.1739" x2="46.8278" y1="97.8395" y2="84.8395" gradientTransform="translate(66.964 -4.7457)" gradientUnits="userSpaceOnUse"/>
    <linearGradient xlink:href="#e" id="s" x1="48.1821" x2="42.0312" y1="79.5" y2="82.5" gradientTransform="matrix(-1 0 0 1 127 -1.4063)" gradientUnits="userSpaceOnUse"/>
    <linearGradient xlink:href="#b" id="r" x1="46.1318" x2="33.83" y1="57.5" y2="37.5" gradientTransform="matrix(-1 0 0 1 127 -1.4063)" gradientUnits="userSpaceOnUse"/>
    <linearGradient xlink:href="#c" id="q" x1="64.5846" x2="31.7797" y1="35.5" y2="51.5" gradientTransform="matrix(-1 0 0 1 127 -1.4063)" gradientUnits="userSpaceOnUse"/>
    <linearGradient xlink:href="#b" id="p" x1="46.1318" x2="33.83" y1="57.5" y2="37.5" gradientTransform="translate(35.8803 -19.9063)" gradientUnits="userSpaceOnUse"/>
    <linearGradient xlink:href="#a" id="o" x1="64.5846" x2="64.5846" y1="43.5" y2="58.5" gradientTransform="translate(-39.981 -19.9063)" gradientUnits="userSpaceOnUse"/>
    <linearGradient xlink:href="#f" id="n" x1="27.35" x2="65.2806" y1="101.3395" y2="82.8395" gradientTransform="translate(-2.7463 -1.7457)" gradientUnits="userSpaceOnUse"/>
    <linearGradient xlink:href="#d" id="m" x1="20.1739" x2="46.8278" y1="97.8395" y2="84.8395" gradientTransform="matrix(-1 0 0 1 58.1045 -4.7457)" gradientUnits="userSpaceOnUse"/>
    <linearGradient xlink:href="#e" id="l" x1="48.1821" x2="42.0312" y1="79.5" y2="82.5" gradientTransform="translate(-2.0503 -1.4063)" gradientUnits="userSpaceOnUse"/>
    <linearGradient xlink:href="#b" id="k" x1="46.1318" x2="33.83" y1="57.5" y2="37.5" gradientTransform="translate(-2.0503 -1.4063)" gradientUnits="userSpaceOnUse"/>
    <linearGradient xlink:href="#c" id="j" x1="64.5846" x2="31.7797" y1="35.5" y2="51.5" gradientTransform="translate(-2.0503 -1.4063)" gradientUnits="userSpaceOnUse"/>
    <linearGradient xlink:href="#b" id="i" x1="46.1318" x2="33.83" y1="57.5" y2="37.5" gradientTransform="matrix(-1 0 0 1 89.1882 -19.9063)" gradientUnits="userSpaceOnUse"/>
    <linearGradient xlink:href="#a" id="h" x1="64.5846" x2="64.5846" y1="43.5" y2="58.5" gradientTransform="translate(-2.0503 -38.4063)" gradientUnits="userSpaceOnUse"/>
  </defs>
  <path d="M62.4375 5.0938a2 2 0 0 0-.7813.1875l-13.3124 6.5a2 2 0 0 0-.9063.9062L38.5 30.125l-13.0313-6.3438a2 2 0 0 0-1.75 0l-13.3124 6.5a2 2 0 0 0-1.125 1.8126v61a2 2 0 0 0 1.125 1.8124l13.3125 6.5a2 2 0 0 0 1.75 0l13.3437-6.5a2 2 0 0 0 1.125-1.8124v-9.9063a2 2 0 0 0 1.2813-.125l6-2.875v31.4063a2 2 0 0 0 1.125 1.8124l13.3124 6.5a2 2 0 0 0 1.75 0l13.3438-6.5a2 2 0 0 0 1.125-1.8124V80.1874l6 2.875c.389.1854.8274.2402 1.25.1563v9.875a2 2 0 0 0 1.125 1.8124l13.3438 6.5a2 2 0 0 0 1.75 0l13.3124-6.5a2 2 0 0 0 1.125-1.8124v-61a2 2 0 0 0-1.125-1.8126l-13.3124-6.5a2 2 0 0 0-1.75 0l-13 6.3438-8.9376-17.4375a2 2 0 0 0-.9062-.9063l-13.3438-6.5a2 2 0 0 0-.9687-.1875z" style="fill:#000;fill-opacity:1;fill-rule:evenodd;stroke:#000;stroke-width:1;stroke-linecap:butt;stroke-linejoin:round;stroke-miterlimit:4;stroke-dasharray:none;stroke-opacity:1"/>
  <path d="m62.5343 20.0938-13.327-6.5 13.327-6.5 13.327 6.5-13.327 6.5z" style="fill:url(#h);fill-opacity:1;fill-rule:evenodd;stroke:#fff;stroke-width:1.5;stroke-linecap:butt;stroke-linejoin:round;stroke-miterlimit:4;stroke-dasharray:none;stroke-opacity:1"/>
  <path d="m62.5343 20.0938-13.327-6.5-12.3018 24 13.327 6.5 12.3018-24z" style="fill:url(#i);fill-opacity:1;fill-rule:evenodd;stroke:#fff;stroke-width:1.5;stroke-linecap:butt;stroke-linejoin:round;stroke-miterlimit:4;stroke-dasharray:none;stroke-opacity:1"/>
  <path d="M62.5343 44.0938v-24l-12.3019 24-12.3018-12 10.2515 20 14.3522-8" style="fill:url(#j);fill-opacity:1;fill-rule:evenodd;stroke:#fff;stroke-width:1.5;stroke-linecap:butt;stroke-linejoin:round;stroke-miterlimit:4;stroke-dasharray:none;stroke-opacity:1"/>
  <path d="m24.6036 38.5938 13.327-6.5 12.3018 24-13.327 6.5-12.3018-24z" style="fill:url(#k);fill-opacity:1;fill-rule:evenodd;stroke:#fff;stroke-width:1;stroke-linecap:butt;stroke-linejoin:round;stroke-miterlimit:4;stroke-dasharray:none;stroke-opacity:1"/>
  <path d="M40.3327 81.2648 49.2073 77v-4.4063l-8.8746 8.671z" style="fill:url(#l);fill-opacity:1;fill-rule:evenodd;stroke:#fff;stroke-width:1.5;stroke-linecap:butt;stroke-linejoin:round;stroke-miterlimit:4;stroke-dasharray:none;stroke-opacity:1"/>
  <path d="M37.9306 80.0937v13l-13.327 6.5v-39" style="fill:url(#m);fill-opacity:1;fill-rule:evenodd;stroke:#fff;stroke-width:1.5;stroke-linecap:butt;stroke-linejoin:round;stroke-miterlimit:4;stroke-dasharray:none;stroke-opacity:1"/>
  <path d="m49.2073 111.5938 13.327 6.5v-61l-13.327-6.5-12.3018 12-12.3019-24-13.327-6.5v61l13.327 6.5v-39l8.8973 17.3394 6.8316 3.332 8.8748-8.6714v39z" style="fill:url(#n);fill-opacity:1;fill-rule:evenodd;stroke:#fff;stroke-width:1.5;stroke-linecap:butt;stroke-linejoin:round;stroke-miterlimit:4;stroke-dasharray:none;stroke-opacity:1;opacity:.96"/>
  <path d="m24.6036 38.5938-13.327-6.5 13.327-6.5 13.327 6.5-13.327 6.5z" style="fill:url(#o);fill-opacity:1;fill-rule:evenodd;stroke:#fff;stroke-width:1.5;stroke-linecap:butt;stroke-linejoin:round;stroke-miterlimit:4;stroke-dasharray:none;stroke-opacity:1"/>
  <path d="m62.5343 20.0938 13.327-6.5 12.3018 24-13.327 6.5-12.3018-24z" style="fill:url(#p);fill-opacity:1;fill-rule:evenodd;stroke:#fff;stroke-width:1.5;stroke-linecap:butt;stroke-linejoin:round;stroke-miterlimit:4;stroke-dasharray:none;stroke-opacity:1"/>
  <path d="M62.5343 44.0938v-24l12.3018 24 12.3018-12-10.2515 20-14.3521-8" style="fill:url(#q);fill-opacity:1;fill-rule:evenodd;stroke:#fff;stroke-width:1.5;stroke-linecap:butt;stroke-linejoin:round;stroke-miterlimit:4;stroke-dasharray:none;stroke-opacity:1"/>
  <path d="m100.4649 38.5938-13.327-6.5-12.3018 24 13.327 6.5 12.3018-24z" style="fill:url(#r);fill-opacity:1;fill-rule:evenodd;stroke:#fff;stroke-width:1;stroke-linecap:butt;stroke-linejoin:round;stroke-miterlimit:4;stroke-dasharray:none;stroke-opacity:1"/>
  <path d="M84.7358 81.2648 75.8612 77v-4.4063l8.8746 8.671z" style="fill:url(#s);fill-opacity:1;fill-rule:evenodd;stroke:#fff;stroke-width:1.5;stroke-linecap:butt;stroke-linejoin:round;stroke-miterlimit:4;stroke-dasharray:none;stroke-opacity:1"/>
  <path d="M87.138 80.0937v13l13.3269 6.5v-39" style="fill:url(#t);fill-opacity:1;fill-rule:evenodd;stroke:#fff;stroke-width:1.5;stroke-linecap:butt;stroke-linejoin:round;stroke-miterlimit:4;stroke-dasharray:none;stroke-opacity:1"/>
  <path d="m75.8612 111.5938-13.327 6.5v-61l13.327-6.5 12.3019 12 12.3018-24 13.327-6.5v61l-13.327 6.5v-39l-8.8972 17.3394-6.8317 3.332-8.8748-8.6714v39z" style="fill:url(#u);fill-opacity:1;fill-rule:evenodd;stroke:#fff;stroke-width:1.5;stroke-linecap:butt;stroke-linejoin:round;stroke-miterlimit:4;stroke-dasharray:none;stroke-opacity:1"/>
  <path d="m100.4649 38.5938 13.327-6.5-13.327-6.5-13.327 6.5 13.327 6.5z" style="fill:url(#v);fill-opacity:1;fill-rule:evenodd;stroke:#fff;stroke-width:1.5;stroke-linecap:butt;stroke-linejoin:round;stroke-miterlimit:4;stroke-dasharray:none;stroke-opacity:1"/>
  <path d="m62.5343 57.0938-13.327-6.5 13.327-6.5 13.327 6.5-13.327 6.5z" style="fill:url(#w);fill-opacity:1;fill-rule:evenodd;stroke:#fff;stroke-width:1.5;stroke-linecap:butt;stroke-linejoin:round;stroke-miterlimit:4;stroke-dasharray:none;stroke-opacity:1"/>
  <path d="M94.3125 80.6563a1.7425 1.7425 0 0 0-1.75 1.75v10.5312H82a1.7425 1.7425 0 0 0-1.75 1.75V107a1.7425 1.7425 0 0 0 1.75 1.75h10.5625v10.5625a1.7425 1.7425 0 0 0 1.75 1.75h12.3125a1.7425 1.7425 0 0 0 1.75-1.75V108.75h10.5625a1.7425 1.7425 0 0 0 1.75-1.75V94.6875a1.7425 1.7425 0 0 0-1.75-1.75H108.375V82.4062a1.7425 1.7425 0 0 0-1.75-1.75H94.3125z" style="fill:#000;fill-opacity:1;fill-rule:evenodd;stroke:#000;stroke-width:1;stroke-linecap:butt;stroke-linejoin:round;stroke-miterlimit:4;stroke-dasharray:none;stroke-opacity:1" transform="translate(-.0488 -.6563)"/>
  <path d="M94.3125 82.4063v12.2812H82V107h12.3125v12.3125h12.3125V107h12.3125V94.6875H106.625V82.4062H94.3125z" style="fill:url(#x);fill-opacity:1;fill-rule:evenodd;stroke:#fff;stroke-width:1.5;stroke-linecap:butt;stroke-linejoin:round;stroke-miterlimit:4;stroke-dasharray:none;stroke-opacity:1" transform="translate(-.0488 -.6563)"/>
</svg>
